<svg width="900" height="600" viewBox="0 0 900 600" xmlns="http://www.w3.org/2000/svg" fill="none">
  <defs>
    <radialGradient id="halo" cx="50%" cy="50%" r="60%" gradientUnits="objectBoundingBox">
      <stop offset="0%" stop-color="#7dd3fc" stop-opacity="0.9" />
      <stop offset="40%" stop-color="#6366f1" stop-opacity="0.55" />
      <stop offset="100%" stop-color="#0f172a" stop-opacity="0" />
    </radialGradient>
    <linearGradient id="orbit" x1="0%" y1="0%" x2="100%" y2="100%">
      <stop offset="0%" stop-color="#f472b6" />
      <stop offset="50%" stop-color="#22d3ee" />
      <stop offset="100%" stop-color="#a78bfa" />
    </linearGradient>
  </defs>
  <rect width="900" height="600" rx="40" fill="#030712" />
  <circle cx="460" cy="280" r="230" fill="url(#halo)" />
  <g opacity="0.4" stroke="url(#orbit)" stroke-width="2">
    <ellipse cx="450" cy="320" rx="320" ry="120" />
    <ellipse cx="450" cy="320" rx="250" ry="95" />
  </g>
  <g opacity="0.6">
    <circle cx="340" cy="210" r="6" fill="#fef3c7" />
    <circle cx="520" cy="170" r="4" fill="#bfdbfe" />
    <circle cx="610" cy="310" r="8" fill="#fca5a5" />
    <circle cx="430" cy="400" r="5" fill="#c4b5fd" />
    <circle cx="520" cy="440" r="3" fill="#7dd3fc" />
    <circle cx="370" cy="340" r="3" fill="#fcd34d" />
    <circle cx="620" cy="230" r="3" fill="#f472b6" />
  </g>
  <path d="M240 420 C320 360 480 360 560 420" stroke="url(#orbit)" stroke-width="3" stroke-linecap="round" opacity="0.5" />
  <circle cx="620" cy="260" r="110" fill="#0f172a" stroke="#c084fc" stroke-opacity="0.4" stroke-width="2" />
  <circle cx="620" cy="260" r="70" fill="#0a1022" stroke="#38bdf8" stroke-opacity="0.5" stroke-width="2" />
  <circle cx="620" cy="260" r="20" fill="#22d3ee" />
</svg>
